<mxfile host="app.diagrams.net" modified="2023-10-20T18:06:45.076Z" agent="Mozilla/5.0 (Windows NT 10.0; Win64; x64) AppleWebKit/537.36 (KHTML, like Gecko) Chrome/118.0.0.0 Safari/537.36" etag="hRAkhGrAMhydOT6oAkP1" version="22.0.6" type="device">
  <diagram name="Página-1" id="bo9qTWIEHryAF4GlGqXE">
    <mxGraphModel dx="2420" dy="2027" grid="1" gridSize="10" guides="1" tooltips="1" connect="1" arrows="1" fold="1" page="1" pageScale="1" pageWidth="827" pageHeight="1169" math="0" shadow="0">
      <root>
        <mxCell id="0" />
        <mxCell id="1" parent="0" />
        <mxCell id="8NhIyAm43lVd6RDA87Y7-179" value="" style="rounded=0;whiteSpace=wrap;html=1;" parent="1" vertex="1">
          <mxGeometry x="-220" y="-300" width="560" height="900" as="geometry" />
        </mxCell>
        <mxCell id="8NhIyAm43lVd6RDA87Y7-178" value="" style="rounded=0;whiteSpace=wrap;html=1;" parent="1" vertex="1">
          <mxGeometry x="-220" y="-320" width="560" height="20" as="geometry" />
        </mxCell>
        <mxCell id="8NhIyAm43lVd6RDA87Y7-132" value="" style="ellipse;html=1;shape=startState;fillColor=#000000;strokeColor=#ff0000;" parent="1" vertex="1">
          <mxGeometry x="-100" y="-260" width="30" height="30" as="geometry" />
        </mxCell>
        <mxCell id="8NhIyAm43lVd6RDA87Y7-133" value="" style="edgeStyle=orthogonalEdgeStyle;html=1;verticalAlign=bottom;endArrow=open;endSize=8;strokeColor=#ff0000;rounded=0;" parent="1" source="8NhIyAm43lVd6RDA87Y7-132" edge="1">
          <mxGeometry relative="1" as="geometry">
            <mxPoint x="-85" y="-170" as="targetPoint" />
          </mxGeometry>
        </mxCell>
        <mxCell id="8NhIyAm43lVd6RDA87Y7-141" style="edgeStyle=orthogonalEdgeStyle;rounded=0;orthogonalLoop=1;jettySize=auto;html=1;entryX=0;entryY=0.5;entryDx=0;entryDy=0;" parent="1" source="8NhIyAm43lVd6RDA87Y7-137" target="8NhIyAm43lVd6RDA87Y7-138" edge="1">
          <mxGeometry relative="1" as="geometry" />
        </mxCell>
        <mxCell id="8NhIyAm43lVd6RDA87Y7-137" value="Solicitar projeto" style="rounded=0;whiteSpace=wrap;html=1;" parent="1" vertex="1">
          <mxGeometry x="-145" y="-170" width="120" height="60" as="geometry" />
        </mxCell>
        <mxCell id="8NhIyAm43lVd6RDA87Y7-142" style="edgeStyle=orthogonalEdgeStyle;rounded=0;orthogonalLoop=1;jettySize=auto;html=1;entryX=0.5;entryY=0;entryDx=0;entryDy=0;" parent="1" source="8NhIyAm43lVd6RDA87Y7-138" target="8NhIyAm43lVd6RDA87Y7-140" edge="1">
          <mxGeometry relative="1" as="geometry" />
        </mxCell>
        <mxCell id="8NhIyAm43lVd6RDA87Y7-146" style="edgeStyle=orthogonalEdgeStyle;rounded=0;orthogonalLoop=1;jettySize=auto;html=1;entryX=1;entryY=0.5;entryDx=0;entryDy=0;" parent="1" source="8NhIyAm43lVd6RDA87Y7-138" target="8NhIyAm43lVd6RDA87Y7-148" edge="1">
          <mxGeometry relative="1" as="geometry">
            <Array as="points">
              <mxPoint x="276" y="-140" />
              <mxPoint x="276" y="100" />
            </Array>
            <mxPoint x="256" y="100" as="targetPoint" />
          </mxGeometry>
        </mxCell>
        <mxCell id="8NhIyAm43lVd6RDA87Y7-138" value="" style="rhombus;whiteSpace=wrap;html=1;" parent="1" vertex="1">
          <mxGeometry x="155" y="-180" width="80" height="80" as="geometry" />
        </mxCell>
        <mxCell id="8NhIyAm43lVd6RDA87Y7-139" value="[O cliente está cadastrado?]" style="text;html=1;strokeColor=none;fillColor=none;align=center;verticalAlign=middle;whiteSpace=wrap;rounded=0;" parent="1" vertex="1">
          <mxGeometry x="80" y="-180" width="80" height="30" as="geometry" />
        </mxCell>
        <mxCell id="e-BEUGaEnSqAVzjFhxGO-2" style="edgeStyle=orthogonalEdgeStyle;rounded=0;orthogonalLoop=1;jettySize=auto;html=1;entryX=0.5;entryY=0;entryDx=0;entryDy=0;" edge="1" parent="1" source="8NhIyAm43lVd6RDA87Y7-140" target="8NhIyAm43lVd6RDA87Y7-148">
          <mxGeometry relative="1" as="geometry" />
        </mxCell>
        <mxCell id="8NhIyAm43lVd6RDA87Y7-140" value="Cadastrar Cliente (nome, informações de contado)" style="rounded=0;whiteSpace=wrap;html=1;" parent="1" vertex="1">
          <mxGeometry x="135" y="-30" width="120" height="60" as="geometry" />
        </mxCell>
        <mxCell id="8NhIyAm43lVd6RDA87Y7-145" value="Não" style="text;html=1;strokeColor=none;fillColor=none;align=center;verticalAlign=middle;whiteSpace=wrap;rounded=0;" parent="1" vertex="1">
          <mxGeometry x="176" y="-100" width="80" height="30" as="geometry" />
        </mxCell>
        <mxCell id="8NhIyAm43lVd6RDA87Y7-147" value="Sim" style="text;html=1;strokeColor=none;fillColor=none;align=center;verticalAlign=middle;whiteSpace=wrap;rounded=0;" parent="1" vertex="1">
          <mxGeometry x="213.75" y="-170" width="80" height="30" as="geometry" />
        </mxCell>
        <mxCell id="8NhIyAm43lVd6RDA87Y7-151" style="edgeStyle=orthogonalEdgeStyle;rounded=0;orthogonalLoop=1;jettySize=auto;html=1;exitX=0.5;exitY=1;exitDx=0;exitDy=0;entryX=0.5;entryY=0;entryDx=0;entryDy=0;" parent="1" source="8NhIyAm43lVd6RDA87Y7-148" target="8NhIyAm43lVd6RDA87Y7-150" edge="1">
          <mxGeometry relative="1" as="geometry" />
        </mxCell>
        <mxCell id="8NhIyAm43lVd6RDA87Y7-148" value="Inserir dados do projeto (endereço, data de inicio)" style="rounded=0;whiteSpace=wrap;html=1;" parent="1" vertex="1">
          <mxGeometry x="135" y="70" width="120" height="60" as="geometry" />
        </mxCell>
        <mxCell id="e-BEUGaEnSqAVzjFhxGO-5" style="edgeStyle=orthogonalEdgeStyle;rounded=0;orthogonalLoop=1;jettySize=auto;html=1;exitX=0.5;exitY=1;exitDx=0;exitDy=0;entryX=0.5;entryY=0;entryDx=0;entryDy=0;" edge="1" parent="1" source="8NhIyAm43lVd6RDA87Y7-150" target="8NhIyAm43lVd6RDA87Y7-158">
          <mxGeometry relative="1" as="geometry" />
        </mxCell>
        <mxCell id="8NhIyAm43lVd6RDA87Y7-150" value="Definir etapas que serão executadas" style="rounded=0;whiteSpace=wrap;html=1;" parent="1" vertex="1">
          <mxGeometry x="135" y="165" width="120" height="60" as="geometry" />
        </mxCell>
        <mxCell id="e-BEUGaEnSqAVzjFhxGO-7" style="edgeStyle=orthogonalEdgeStyle;rounded=0;orthogonalLoop=1;jettySize=auto;html=1;exitX=0.5;exitY=1;exitDx=0;exitDy=0;entryX=0.5;entryY=0;entryDx=0;entryDy=0;" edge="1" parent="1" source="8NhIyAm43lVd6RDA87Y7-158" target="e-BEUGaEnSqAVzjFhxGO-4">
          <mxGeometry relative="1" as="geometry" />
        </mxCell>
        <mxCell id="e-BEUGaEnSqAVzjFhxGO-8" style="edgeStyle=orthogonalEdgeStyle;rounded=0;orthogonalLoop=1;jettySize=auto;html=1;exitX=0;exitY=0.5;exitDx=0;exitDy=0;entryX=0;entryY=0.5;entryDx=0;entryDy=0;" edge="1" parent="1" source="8NhIyAm43lVd6RDA87Y7-158" target="8NhIyAm43lVd6RDA87Y7-171">
          <mxGeometry relative="1" as="geometry">
            <Array as="points">
              <mxPoint x="100" y="310" />
              <mxPoint x="100" y="525" />
            </Array>
          </mxGeometry>
        </mxCell>
        <mxCell id="8NhIyAm43lVd6RDA87Y7-158" value="" style="rhombus;whiteSpace=wrap;html=1;" parent="1" vertex="1">
          <mxGeometry x="155" y="270" width="80" height="80" as="geometry" />
        </mxCell>
        <mxCell id="8NhIyAm43lVd6RDA87Y7-160" value="[Existe levantamento?]" style="text;html=1;strokeColor=none;fillColor=none;align=center;verticalAlign=middle;whiteSpace=wrap;rounded=0;" parent="1" vertex="1">
          <mxGeometry x="226.25" y="260" width="90" height="30" as="geometry" />
        </mxCell>
        <mxCell id="8NhIyAm43lVd6RDA87Y7-169" value="Não" style="text;html=1;strokeColor=none;fillColor=none;align=center;verticalAlign=middle;whiteSpace=wrap;rounded=0;" parent="1" vertex="1">
          <mxGeometry x="95" y="280" width="80" height="30" as="geometry" />
        </mxCell>
        <mxCell id="8NhIyAm43lVd6RDA87Y7-170" value="Sim" style="text;html=1;strokeColor=none;fillColor=none;align=center;verticalAlign=middle;whiteSpace=wrap;rounded=0;" parent="1" vertex="1">
          <mxGeometry x="175" y="350" width="80" height="30" as="geometry" />
        </mxCell>
        <mxCell id="8NhIyAm43lVd6RDA87Y7-171" value="" style="ellipse;html=1;shape=endState;fillColor=#000000;strokeColor=#ff0000;" parent="1" vertex="1">
          <mxGeometry x="180.75" y="510" width="30" height="30" as="geometry" />
        </mxCell>
        <mxCell id="8NhIyAm43lVd6RDA87Y7-174" value="Fim" style="text;html=1;strokeColor=none;fillColor=none;align=center;verticalAlign=middle;whiteSpace=wrap;rounded=0;" parent="1" vertex="1">
          <mxGeometry x="155" y="550" width="80" height="30" as="geometry" />
        </mxCell>
        <mxCell id="8NhIyAm43lVd6RDA87Y7-175" value="Inicio" style="text;html=1;strokeColor=none;fillColor=none;align=center;verticalAlign=middle;whiteSpace=wrap;rounded=0;" parent="1" vertex="1">
          <mxGeometry x="-125" y="-280" width="80" height="30" as="geometry" />
        </mxCell>
        <mxCell id="8NhIyAm43lVd6RDA87Y7-176" value="" style="endArrow=none;html=1;rounded=0;" parent="1" edge="1">
          <mxGeometry width="50" height="50" relative="1" as="geometry">
            <mxPoint x="60" y="600" as="sourcePoint" />
            <mxPoint x="60" y="-320" as="targetPoint" />
          </mxGeometry>
        </mxCell>
        <mxCell id="8NhIyAm43lVd6RDA87Y7-180" value="Cliente" style="text;html=1;strokeColor=none;fillColor=none;align=center;verticalAlign=middle;whiteSpace=wrap;rounded=0;" parent="1" vertex="1">
          <mxGeometry x="-108.75" y="-325" width="60" height="30" as="geometry" />
        </mxCell>
        <mxCell id="8NhIyAm43lVd6RDA87Y7-181" value="Arquiteta" style="text;html=1;strokeColor=none;fillColor=none;align=center;verticalAlign=middle;whiteSpace=wrap;rounded=0;" parent="1" vertex="1">
          <mxGeometry x="166.25" y="-325" width="60" height="30" as="geometry" />
        </mxCell>
        <mxCell id="e-BEUGaEnSqAVzjFhxGO-10" style="edgeStyle=orthogonalEdgeStyle;rounded=0;orthogonalLoop=1;jettySize=auto;html=1;entryX=0.5;entryY=0;entryDx=0;entryDy=0;" edge="1" parent="1" source="e-BEUGaEnSqAVzjFhxGO-4" target="8NhIyAm43lVd6RDA87Y7-171">
          <mxGeometry relative="1" as="geometry" />
        </mxCell>
        <mxCell id="e-BEUGaEnSqAVzjFhxGO-4" value="Anexar arquivos de levantamento arquitetônicop" style="rounded=0;whiteSpace=wrap;html=1;" vertex="1" parent="1">
          <mxGeometry x="135" y="390" width="120" height="60" as="geometry" />
        </mxCell>
      </root>
    </mxGraphModel>
  </diagram>
</mxfile>
